<?xml version="1.0" encoding="UTF-8" ?>
<!DOCTYPE svg PUBLIC "-//W3C//DTD SVG 1.1//EN" "http://www.w3.org/Graphics/SVG/1.1/DTD/svg11.dtd">
<svg width="512pt" height="512pt" viewBox="0 0 512 512" version="1.1" xmlns="http://www.w3.org/2000/svg">
<path fill="#ffffff" d=" M 0.00 0.00 L 512.00 0.00 L 512.00 512.00 L 0.00 512.00 L 0.00 0.00 Z" />
<path fill="#0074a2" d=" M 46.41 147.55 C 47.88 147.21 49.39 147.04 50.90 147.00 C 187.30 146.98 323.69 147.02 460.09 146.98 C 466.05 146.91 472.44 148.96 476.10 153.92 C 479.01 157.57 480.02 162.34 480.02 166.92 C 479.98 226.98 480.02 287.04 480.00 347.10 C 479.93 352.75 477.74 358.66 473.08 362.10 C 469.42 365.00 464.65 366.02 460.08 366.02 C 323.69 365.98 187.29 366.03 50.90 366.00 C 44.76 365.95 38.33 363.26 35.05 357.87 C 31.51 352.62 31.95 346.02 31.99 339.99 C 32.01 281.96 31.98 223.93 32.00 165.91 C 31.75 157.37 37.76 148.92 46.41 147.55 Z" />
<path fill="#30a2cc" d=" M 46.38 155.39 C 51.84 154.31 57.47 155.08 63.00 154.93 C 196.02 154.92 329.05 154.97 462.07 154.90 C 466.50 154.67 471.04 157.66 471.81 162.18 C 472.50 167.08 472.01 172.06 472.07 177.00 C 472.06 229.67 472.07 282.33 472.07 335.00 C 471.98 340.27 472.52 345.58 471.81 350.83 C 471.04 355.34 466.51 358.35 462.07 358.10 C 327.72 358.04 193.36 358.04 59.00 358.10 C 53.57 357.77 46.98 359.57 42.63 355.38 C 38.62 351.32 40.14 345.11 39.88 340.00 C 39.98 281.65 39.94 223.29 39.90 164.94 C 39.69 160.78 42.25 156.52 46.38 155.39 Z" />
<path fill="#ffffff" d=" M 215.21 213.02 C 218.13 213.01 221.06 213.00 223.98 213.00 C 224.01 223.10 223.99 233.19 224.00 243.29 C 226.46 240.65 228.99 237.89 232.41 236.52 C 239.45 233.64 248.33 234.67 253.87 240.13 C 259.46 245.46 261.42 253.56 260.97 261.06 C 260.73 268.69 257.73 276.78 251.24 281.24 C 245.38 285.45 237.28 286.23 230.72 283.25 C 227.53 281.83 225.23 279.11 222.98 276.54 C 222.83 279.02 222.60 281.50 222.48 283.98 C 219.98 283.99 217.48 283.99 214.98 284.00 C 215.47 260.34 215.09 236.68 215.21 213.02 Z" />
<path fill="#ffffff" d=" M 272.21 213.02 C 275.13 213.01 278.06 213.00 280.99 213.00 C 281.01 236.67 281.01 260.33 280.99 283.99 C 278.06 284.00 275.13 283.99 272.21 283.98 C 272.21 260.33 272.21 236.67 272.21 213.02 Z" />
<path fill="#ffffff" d=" M 359.21 213.02 C 362.13 213.01 365.06 213.00 367.99 213.00 C 368.01 223.04 367.99 233.07 368.00 243.10 C 371.43 239.24 375.83 235.84 381.11 235.21 C 386.88 234.29 393.23 236.44 396.76 241.22 C 399.86 245.43 400.81 250.80 400.80 255.93 C 400.81 265.28 400.77 274.63 400.79 283.98 C 397.86 283.99 394.94 284.00 392.01 284.00 C 391.97 274.97 392.03 265.95 392.01 256.93 C 391.92 252.73 391.36 248.00 388.08 245.00 C 383.63 240.87 376.03 241.72 371.92 245.93 C 369.17 248.46 367.85 252.21 367.98 255.91 C 367.98 265.27 368.02 274.63 367.99 284.00 C 365.06 284.00 362.13 283.99 359.21 283.98 C 359.21 260.33 359.21 236.67 359.21 213.02 Z" />
<path fill="#ffffff" d=" M 109.25 218.20 C 117.35 217.05 125.63 216.41 133.77 217.56 C 140.32 218.51 146.81 222.29 149.50 228.56 C 152.75 236.69 150.94 247.29 143.58 252.62 C 136.33 258.12 126.70 258.50 117.99 257.68 C 118.00 266.45 118.00 275.22 117.99 284.00 C 115.06 284.00 112.13 283.99 109.21 283.98 C 109.24 262.05 109.15 240.13 109.25 218.20 Z" />
<path fill="#ffffff" d=" M 298.43 217.33 C 302.51 215.47 307.09 219.51 305.91 223.78 C 305.28 228.06 299.42 229.13 296.50 226.52 C 293.90 223.85 294.68 218.51 298.43 217.33 Z" />
<path fill="#30a2cc" d=" M 118.14 224.39 C 124.74 223.86 132.16 223.05 137.87 227.16 C 144.42 232.34 143.46 244.09 136.28 248.31 C 130.82 251.57 124.15 251.23 118.07 250.47 C 117.99 241.78 117.87 233.08 118.14 224.39 Z" />
<path fill="#ffffff" d=" M 322.41 238.38 C 329.28 233.52 338.63 234.42 345.91 237.87 C 345.20 239.91 344.50 241.96 343.80 244.01 C 338.91 242.26 333.05 240.03 328.21 243.09 C 324.71 245.14 324.57 250.86 328.13 252.93 C 333.43 256.41 340.47 257.16 344.68 262.31 C 349.96 268.38 347.72 278.88 340.58 282.49 C 332.81 286.44 323.33 285.49 315.60 281.92 C 316.28 279.68 316.99 277.45 317.70 275.21 C 323.11 277.63 329.54 279.99 335.29 277.28 C 339.46 275.40 340.32 269.15 336.75 266.26 C 331.36 262.04 323.43 261.67 319.25 255.79 C 315.08 250.42 316.99 242.14 322.41 238.38 Z" />
<path fill="#ffffff" d=" M 160.02 236.00 C 162.94 236.00 165.87 236.01 168.79 236.02 C 168.81 245.03 168.77 254.04 168.78 263.04 C 168.84 267.54 169.56 272.68 173.21 275.75 C 178.31 279.44 186.01 277.55 189.56 272.56 C 191.71 269.90 192.08 266.36 192.03 263.07 C 191.99 254.05 191.99 245.03 192.01 236.00 C 194.94 236.00 197.87 236.01 200.79 236.02 C 200.89 252.01 200.56 268.01 201.02 284.00 C 198.45 284.00 195.89 283.99 193.32 284.00 C 193.24 281.52 193.04 279.04 192.95 276.57 C 190.04 279.49 187.12 282.73 183.07 284.01 C 177.15 285.90 169.84 285.31 165.32 280.67 C 161.28 276.60 160.12 270.60 160.02 265.07 C 159.96 255.38 160.02 245.69 160.02 236.00 Z" />
<path fill="#ffffff" d=" M 296.21 236.02 C 299.13 236.01 302.06 236.00 304.98 236.00 C 305.01 252.00 305.01 268.00 304.99 284.00 C 302.06 284.00 299.13 283.99 296.21 283.98 C 296.21 267.99 296.21 252.01 296.21 236.02 Z" />
<path fill="#30a2cc" d=" M 235.36 242.28 C 241.59 240.82 248.12 244.80 250.46 250.60 C 253.36 257.80 252.90 266.82 248.11 273.11 C 243.21 279.44 232.65 279.58 227.50 273.49 C 223.05 268.79 223.91 261.88 224.06 255.96 C 224.25 249.57 228.93 243.42 235.36 242.28 Z" />
</svg>
